# xmcd CD database file
#
# Track frame offsets:
#	150
#	19361
#	39559
#	53711
#	70921
#	90925
#	105163
#	120212
#	140166
#	155018
#	172668
#	185509
#	200086
#	215936
#	229740
#	244287
#	258356
#	273314
#
# Disc length: 3848 seconds
#
# Revision: 0
# Processed by: cddbd v1.5.2PL0 Copyright (c) Steve Scherf et al.
# Submitted via: CDex 1.81
#
DISCID=fd0f0612
DTITLE=Various Artist - Country Music Explosion!
DYEAR=2009
DGENRE=Country
TTITLE0=No One Else on Earth (Club Mix)
TTITLE1=A Thousand Miles from Nowhere
TTITLE2=Time Marches On
TTITLE3=Anymore
TTITLE4=How Do I Live
TTITLE5=I Love a Rainy Night
TTITLE6=Fishin' in the Dark
TTITLE7=I Swear
TTITLE8=I'm Alright
TTITLE9=I Saw the Light
TTITLE10=Streeets of Bakersfield
TTITLE11=Some Girls Do
TTITLE12=Lookin' for Love
TTITLE13=Swingin'
TTITLE14=Mama He's Crazy
TTITLE15=On the Other Hand
TTITLE16=That's What I Love about Sunday
TTITLE17=I Like It, I Love It
EXTD=YEAR: 2009
EXTT0=
EXTT1=
EXTT2=
EXTT3=
EXTT4=
EXTT5=
EXTT6=
EXTT7=
EXTT8=
EXTT9=
EXTT10=
EXTT11=
EXTT12=
EXTT13=
EXTT14=
EXTT15=
EXTT16=
EXTT17=
PLAYORDER=
